<svg width="53" height="65" viewBox="0 0 53 65" fill="none" xmlns="http://www.w3.org/2000/svg">
<g id="Cryptocurrency/Currency226">
<path id="Shape" opacity="0.2" d="M52.128 39.8876C48.6191 57.0137 34.3637 67.4353 20.2881 63.1656C6.21907 58.8958 -2.34616 41.549 1.16351 24.424C4.67071 7.29597 18.9253 -3.12769 32.9968 1.14207C47.0716 5.41184 55.636 22.7606 52.1272 39.8876H52.128Z" fill="#F7931A"/>
<path id="Shape_2" fill-rule="evenodd" clip-rule="evenodd" d="M34.5561 28.4398C34.9103 25.5541 33.1047 24.0028 30.6358 22.9679L31.4367 19.0589L29.4808 18.4659L28.701 22.2719C28.1875 22.1161 27.6596 21.969 27.1349 21.8233L27.9202 17.9922L25.9659 17.3992L25.1645 21.3069C24.739 21.1889 24.3213 21.0724 23.9158 20.9497L23.9181 20.9375L21.2214 20.1182L20.7012 22.6596C20.7012 22.6596 22.152 23.0642 22.1214 23.0893C22.9134 23.3298 23.057 23.9676 23.0325 24.4731L22.1203 28.9264C22.1749 28.9433 22.2456 28.9677 22.3236 29.0057L22.1175 28.9433L20.8382 35.1817C20.7413 35.4745 20.4957 35.9136 19.9421 35.7469C19.9616 35.7815 18.5208 35.3152 18.5208 35.3152L17.55 38.0396L20.0953 38.8115C20.3826 38.8992 20.6665 38.9893 20.9472 39.0784L20.9476 39.0785C21.1292 39.1362 21.3096 39.1934 21.4887 39.2493L20.6795 43.2038L22.6327 43.7968L23.4346 39.885C23.9676 40.0612 24.4856 40.2239 24.9924 40.377L24.1938 44.2705L26.1492 44.8635L26.9584 40.9172C30.2928 41.685 32.8007 41.3753 33.8549 37.7062C34.7054 34.7513 33.8132 33.0469 32.0588 31.9348C33.3364 31.5749 34.2988 30.5522 34.5556 28.4398H34.5561ZM30.087 36.0631C29.5319 38.7751 26.0427 37.6529 24.4476 37.14C24.3048 37.094 24.1772 37.053 24.0682 37.02L25.1419 31.782C25.2752 31.8224 25.4379 31.8669 25.6223 31.9172C27.2724 32.3678 30.6541 33.2912 30.0875 36.0631H30.087ZM25.9555 29.4876C27.2864 29.9196 30.1874 30.8614 30.6928 28.3978C31.2095 25.8774 28.3885 25.1178 27.0108 24.7468C26.8559 24.7051 26.7193 24.6683 26.6076 24.6345L25.6341 29.3852C25.7262 29.4132 25.8343 29.4483 25.9555 29.4876Z" fill="#F7931A"/>
</g>
</svg>
