<svg width="53" height="65" viewBox="0 0 53 65" fill="none" xmlns="http://www.w3.org/2000/svg">
<path opacity="0.2" d="M52.7681 32.9048C52.7681 50.4675 41.0683 64.7049 26.6357 64.7049C12.2029 64.7049 0.50293 50.4675 0.50293 32.9048C0.50293 15.3424 12.2029 1.10516 26.6357 1.10516C41.0682 1.10516 52.7681 15.3424 52.7681 32.9048" fill="#3CC8C8"/>
<path fill-rule="evenodd" clip-rule="evenodd" d="M28.3962 17.1634C28.7472 16.352 27.9407 15.3697 27.2801 15.7932C26.7426 16.0564 26.6062 17.0127 27.0245 17.4965C27.4193 18.0006 28.1923 17.8247 28.3962 17.1634ZM21.0459 17.5219C21.0868 16.9843 20.5787 16.5323 20.1774 16.7354C19.6187 16.9183 19.5567 17.9997 20.0987 18.2578C20.5078 18.5352 21.0884 18.1056 21.0459 17.5219ZM34.7296 18.273C34.1024 18.1799 34.0032 16.9679 34.607 16.7238C35.0753 16.4431 35.505 16.9695 35.5735 17.5152C35.4753 17.9811 35.1579 18.4077 34.7296 18.273ZM23.3178 21.6655C23.421 20.7076 22.4636 19.9308 21.7926 20.4524C21.1642 20.8473 21.0779 22.0257 21.648 22.5393C22.2378 23.1932 23.283 22.6328 23.3178 21.6655ZM32.0356 21.0059C32.3349 20.0577 33.5479 20.029 33.8886 20.9521C34.2254 21.6704 33.8111 22.56 33.2111 22.8042C32.4163 22.9866 31.6613 21.9305 32.0356 21.0059ZM27.6546 21.2723C27.0244 21.3278 26.4204 21.9351 26.4269 22.7502C26.391 23.4162 26.7781 23.9602 27.2378 24.2375C27.2841 24.241 27.3309 24.2455 27.3781 24.2501L27.3782 24.2501C27.6378 24.2755 27.9075 24.3018 28.1411 24.1409C28.745 23.8126 29.0417 22.8278 28.7075 22.1127C28.5282 21.5942 28.0726 21.3753 27.6546 21.2723ZM15.8587 23.9379C16.4716 23.4748 17.2986 24.32 17.0665 25.1384C16.9388 25.8463 16.1646 26.1343 15.722 25.6824C15.2496 25.2589 15.3244 24.2408 15.8587 23.9379ZM39.8657 24.8163C39.9276 24.0093 39.0695 23.44 38.5495 23.9363C38.0158 24.339 38.0739 25.4141 38.6424 25.7282C39.1586 26.1072 39.9005 25.5522 39.8657 24.8163ZM29.3975 25.4014C30.2557 25.0225 31.275 25.4759 31.7641 26.4164C32.4093 27.566 32.066 29.3168 31.0648 29.9765C30.0273 30.7567 28.5124 30.0953 28.1293 28.6713C27.6943 27.3965 28.328 25.801 29.3975 25.4014ZM27.0529 26.6335C26.5935 25.4377 25.3135 24.9747 24.3624 25.5265C23.3488 26.083 22.8824 27.7244 23.4076 28.9329C23.8759 30.1826 25.2412 30.6947 26.2089 30.0192C27.1755 29.4182 27.5935 27.7975 27.0529 26.6335ZM19.32 27.6457C19.3923 26.8925 19.9704 26.4024 20.5536 26.3517C21.182 26.4448 21.684 27.0447 21.7524 27.8264C21.7111 28.6003 21.2246 29.3566 20.5574 29.352C19.8234 29.4297 19.1798 28.5321 19.32 27.6457ZM35.9773 27.825C36.0108 26.7609 34.9643 25.976 34.2108 26.5151C33.4017 26.984 33.3409 28.5349 34.1204 29.0856C34.8708 29.747 36.0289 28.9524 35.9773 27.825ZM22.3137 30.489C23.1951 30.1909 24.2028 30.7015 24.6351 31.6973C25.1086 32.6996 24.915 34.0919 24.1796 34.827C23.2364 35.9053 21.4969 35.4724 20.995 34.0008C20.4181 32.6519 21.1188 30.844 22.3137 30.489ZM34.1861 31.5472C33.7254 30.5878 32.7189 30.1818 31.8621 30.4831C30.6582 30.8883 30.0207 32.7658 30.6543 34.0942C31.1769 35.3786 32.648 35.8098 33.5977 34.9885C34.5043 34.2811 34.795 32.6445 34.1861 31.5472ZM16.6464 31.7344C17.4077 31.3805 18.2516 32.4131 17.9432 33.3409C17.7548 34.1861 16.7857 34.4985 16.2851 33.8753C15.6993 33.2902 15.9162 31.9882 16.6464 31.7344ZM38.3677 31.5763C37.7208 31.6191 37.2593 32.3058 37.2813 33.0812C37.4077 33.4428 37.5612 33.8202 37.8606 34.0072C38.4993 34.4402 39.4026 33.8139 39.3549 32.8924C39.3961 32.1948 38.8891 31.6778 38.3677 31.5763ZM12.9015 32.1905C13.3596 31.9448 13.9261 32.4327 13.8215 33.0579C13.797 33.7658 12.9467 34.038 12.6343 33.4465C12.3583 33.0358 12.5235 32.4023 12.9015 32.1905ZM42.7513 32.5605C42.6235 32.0974 42.1061 31.8945 41.7836 32.1768C41.2469 32.5287 41.4573 33.7467 42.1075 33.6738C42.5707 33.7593 42.9681 33.0663 42.7513 32.5605ZM24.7988 35.5749C26.004 35.1897 27.2996 36.425 27.3072 37.9504C27.3858 39.4918 26.1098 40.8586 24.8761 40.5026C23.9224 40.3139 23.1741 39.1848 23.2051 38.0003C23.2025 36.8674 23.898 35.8145 24.7988 35.5749ZM32.1132 37.9687C32.1326 36.4081 30.7983 35.1507 29.5751 35.5709C28.8498 35.7924 28.2357 36.5272 28.0755 37.4307C27.7581 38.7866 28.5969 40.3217 29.7336 40.5024C30.9416 40.8025 32.1777 39.4816 32.1132 37.9687ZM20.3713 36.5104C21.2178 36.3328 22.0114 37.4936 21.6681 38.4816C21.4177 39.5343 20.1712 39.8199 19.6201 38.96C18.9737 38.1341 19.4563 36.6244 20.3713 36.5104ZM35.9922 37.9773C36.0503 36.9704 35.1238 36.1679 34.369 36.5565C33.4567 36.9128 33.3045 38.6223 34.1405 39.2032C34.8787 39.8502 36.0225 39.0858 35.9922 37.9773ZM38.2842 41.3803C37.9887 40.7031 38.5255 39.8055 39.1372 39.9309C39.4249 39.9249 39.6308 40.1878 39.8171 40.4254L39.8496 40.4669L39.8566 40.5355C39.8961 40.9217 39.9415 41.3644 39.6858 41.6562C39.3178 42.2287 38.4841 42.0653 38.2842 41.3803ZM17.121 41.1707C17.2495 40.3491 16.4268 39.6515 15.8551 40.1192C15.3105 40.4604 15.2911 41.526 15.8175 41.9002C16.308 42.3125 17.0526 41.8973 17.121 41.1707ZM27.1499 41.6402C27.8983 41.2343 28.8518 42.0352 28.7809 43.0484C28.8364 44.1681 27.657 44.9434 26.9253 44.2711C26.1124 43.6938 26.2479 41.9953 27.1499 41.6402ZM23.3531 44.3167C23.4111 43.4398 22.5557 42.7278 21.9182 43.14C21.4691 43.3463 21.286 43.9553 21.2781 44.502C21.4317 45.0037 21.7439 45.5313 22.2227 45.544C22.8008 45.6504 23.3725 45.0367 23.3531 44.3167ZM32.5134 43.1535C33.1689 42.6556 34.1006 43.3707 34.0386 44.3086C34.0554 45.2887 33.0025 45.9165 32.3922 45.2726C31.8012 44.768 31.8734 43.5548 32.5134 43.1535ZM34.8843 47.4334C34.4108 47.5571 34.0675 48.2105 34.3591 48.7528C34.6584 49.3824 35.5321 49.1572 35.5875 48.423C35.6676 47.8805 35.265 47.5286 34.8843 47.4334ZM19.7293 48.281C19.8454 47.8512 20.1267 47.424 20.5384 47.5358C21.1384 47.5881 21.3165 48.6998 20.7914 49.0424C20.3191 49.4338 19.7712 48.8978 19.7293 48.281ZM28.0134 48.1675C27.5721 47.8297 26.9025 48.139 26.7876 48.7748C26.5777 49.4171 27.0818 50.1936 27.6406 50.1131C27.9413 50.1226 28.1735 49.8594 28.3542 49.5962C28.3893 49.4186 28.4251 49.2409 28.4651 49.0634L28.4626 49.0521C28.3883 48.7136 28.3018 48.3197 28.0134 48.1675Z" fill="#3CC8C8"/>
</svg>
