<svg width="40" height="44" viewBox="0 0 40 44" fill="none" xmlns="http://www.w3.org/2000/svg">
<g clip-path="url(#clip0_320_1525)">
<path d="M28.8562 28.5716C33.7923 25.7745 37.5343 23.6432 37.8568 23.4775C38.8886 22.9112 39.9541 21.4125 37.8568 20.2484C37.1796 19.8823 33.5338 17.8173 28.8562 15.1543L22.3717 21.9127L28.8562 28.5714V28.5716Z" fill="#FFD900"/>
<path d="M22.3707 21.9126L1.72339 43.388C2.20803 43.4542 2.75517 43.3216 3.40024 42.9556C4.75456 42.1905 19.1116 34.0992 28.8552 28.573L22.3707 21.9126Z" fill="#F43249"/>
<path d="M22.3723 21.9127L28.8568 15.1876C28.8568 15.1876 4.85406 1.66914 3.40181 0.871129C2.85467 0.536702 2.24153 0.437363 1.69287 0.536702L22.3723 21.9127Z" fill="#00EE76"/>
<path d="M22.3726 21.9126L1.69316 0.536621C0.853899 0.736869 0.144653 1.50208 0.144653 3.06703V40.8576C0.144653 42.2899 0.693467 43.3216 1.72525 43.4211L22.3726 21.9126Z" fill="#00D3FF"/>
</g>
<defs>
<clipPath id="clip0_320_1525">
<rect width="39" height="43" fill="white" transform="translate(0.10791 0.5)"/>
</clipPath>
</defs>
</svg>
