<svg width="61" height="60" viewBox="0 0 61 60" fill="none" xmlns="http://www.w3.org/2000/svg">
<path d="M43.9019 31.3887C43.8784 27.3926 45.689 24.3809 49.3452 22.1602C47.3003 19.2305 44.2065 17.6191 40.1284 17.3086C36.2671 17.0039 32.0425 19.5586 30.4956 19.5586C28.8608 19.5586 25.1226 17.4141 22.1812 17.4141C16.1108 17.5078 9.65967 22.2539 9.65967 31.9102C9.65967 34.7637 10.1812 37.7109 11.2241 40.7461C12.6187 44.7422 17.646 54.5332 22.8901 54.375C25.6323 54.3106 27.5718 52.4297 31.1401 52.4297C34.603 52.4297 36.396 54.375 39.4546 54.375C44.7456 54.2988 49.2925 45.3984 50.6167 41.3906C43.521 38.0449 43.9019 31.5938 43.9019 31.3887ZM37.7437 13.5176C40.7144 9.99023 40.4448 6.7793 40.3569 5.625C37.7319 5.77734 34.6968 7.41211 32.9683 9.42188C31.064 11.5781 29.9448 14.2441 30.1851 17.25C33.021 17.4668 35.6108 16.0078 37.7437 13.5176Z" fill="black"/>
</svg>
