<svg width="40" height="26" viewBox="0 0 40 26" fill="none" xmlns="http://www.w3.org/2000/svg">
<path id="Vector" d="M35.3333 2.66999H33.3704V1.50662C33.3704 0.866775 32.487 0.343262 31.4074 0.343262C30.3278 0.343262 29.4444 0.866775 29.4444 1.50662V2.66999H9.81482V1.50662C9.81482 0.866775 8.93148 0.343262 7.85185 0.343262C6.77222 0.343262 5.88889 0.866775 5.88889 1.50662V2.66999H3.92593C1.76667 2.66999 0 3.71701 0 4.99671V23.6105C0 24.8902 1.76667 25.9372 3.92593 25.9372H35.3333C37.4926 25.9372 39.2593 24.8902 39.2593 23.6105V4.99671C39.2593 3.71701 37.4926 2.66999 35.3333 2.66999ZM33.3704 23.6105H5.88889C4.80926 23.6105 3.92593 23.087 3.92593 22.4472V8.4868H35.3333V22.4472C35.3333 23.087 34.45 23.6105 33.3704 23.6105Z" fill="#5367FE"/>
</svg>
