<svg width="58" height="61" viewBox="0 0 58 61" fill="none" xmlns="http://www.w3.org/2000/svg">
<g id="dash-3 (1)">
<path id="Oval" d="M28.6412 60.9993C44.3843 60.9993 57.1467 47.3714 57.1467 30.5605C57.1467 13.7496 44.3843 0.121643 28.6412 0.121643C12.8981 0.121643 0.135742 13.7496 0.135742 30.5605C0.135742 47.3714 12.8981 60.9993 28.6412 60.9993Z" fill="white"/>
<path id="Shape" d="M52.402 46.87H41.152V30.5601L28.642 43.7408L16.132 30.5601V46.87H4.88197H4.52197C9.56198 55.3094 18.472 60.9989 28.642 60.9989C38.812 60.9989 47.722 55.4043 52.762 46.87H52.402Z" fill="#4C4C4C"/>
<path id="Shape_2" d="M10.2071 39.9263V14.8465L28.6412 34.3213L47.0753 14.8465V39.9263H55.618C56.6071 36.8863 57.1467 33.6563 57.1467 30.2363C57.1467 13.6115 44.3777 0.121643 28.6412 0.121643C12.9048 0.121643 0.135742 13.6115 0.135742 30.2363C0.135742 33.6563 0.675278 36.8863 1.66443 39.9263H10.2071Z" fill="#FF6B01"/>
</g>
</svg>
