<svg width="70" height="70" viewBox="0 0 70 70" fill="none" xmlns="http://www.w3.org/2000/svg">
<path d="M69.5114 58.6613C69.5114 59.4124 68.9599 59.9165 68.3071 59.9165V59.9119C67.6357 59.9165 67.0943 59.4124 67.0943 58.6615C67.0943 57.9108 67.6357 57.4081 68.3071 57.4081C68.9601 57.4079 69.5114 57.9106 69.5114 58.6613ZM70 58.6613C70 57.6304 69.1993 57.0321 68.3071 57.0321C67.4086 57.0321 66.6079 57.6304 66.6079 58.6613C66.6079 59.6914 67.4088 60.2921 68.3071 60.2921C69.1993 60.2921 70 59.6914 70 58.6613ZM68.0262 58.7991H68.2075L68.6275 59.5367H69.0886L68.6233 58.7681C68.8637 58.7509 69.0615 58.6366 69.0615 58.313C69.0615 57.9106 68.7841 57.7816 68.3146 57.7816H67.6353V59.5367H68.0258L68.0262 58.7991ZM68.0262 58.502V58.0795H68.2979C68.4457 58.0795 68.647 58.0915 68.647 58.2717C68.647 58.4677 68.5429 58.502 68.3686 58.502H68.0262ZM58.5992 49.6824L60.71 55.4567H56.423L58.5992 49.6824ZM56.3386 47.4339L51.4743 59.7585H54.909L55.6783 57.5806H61.4349L62.1631 59.7585H65.8919L60.9914 47.4323L56.3386 47.4339ZM46.5727 59.7631H50.0576V47.4302L46.5721 47.4294L46.5727 59.7631ZM22.3802 47.4294L19.4728 57.2042L16.6876 47.4302L12.9275 47.4294L16.9053 59.7631H21.9257L25.9356 47.4294H22.3802ZM36.4665 50.115H37.9644C40.1372 50.115 41.5427 51.0905 41.5427 53.6221C41.5427 56.1542 40.1372 57.1299 37.9644 57.1299H36.4665V50.115ZM33.0109 47.4294V59.7631H38.6603C41.6704 59.7631 42.6535 59.2628 43.7162 58.1405C44.4669 57.3524 44.9525 55.6226 44.9525 53.7321C44.9525 51.9979 44.5416 50.452 43.8252 49.4888C42.5346 47.7664 40.6751 47.4294 37.8999 47.4294H33.0109ZM0 47.4122V59.7631H3.51434V50.385L6.23738 50.3858C7.13902 50.3858 7.78174 50.6107 8.21593 51.0744C8.76663 51.6609 8.99149 52.6078 8.99149 54.3399V59.7631H12.3969V52.9392C12.3969 48.0689 9.29264 47.4122 6.25531 47.4122H0ZM27.4023 47.4294L27.4037 59.7631H30.887V47.4294H27.4023Z" fill="#2C2C2C"/>
<path d="M9.36584 22.8715C9.36584 22.8715 13.8479 16.2585 22.7972 15.5743V13.1751C12.8848 13.9712 4.30096 22.3666 4.30096 22.3666C4.30096 22.3666 9.16268 36.4208 22.7972 37.7078V35.1576C12.7915 33.8989 9.36584 22.8715 9.36584 22.8715ZM22.7972 30.086V32.4217C15.2352 31.0733 13.1361 23.2127 13.1361 23.2127C13.1361 23.2127 16.767 19.1904 22.7972 18.5382V21.1009C22.7926 21.1009 22.7894 21.0995 22.7857 21.0995C19.6207 20.7197 17.1482 23.6763 17.1482 23.6763C17.1482 23.6763 18.534 28.6536 22.7972 30.086ZM22.7972 8.75V13.1751C23.0882 13.1528 23.3792 13.1339 23.6718 13.124C34.9411 12.7441 42.2839 22.3666 42.2839 22.3666C42.2839 22.3666 33.8505 32.6214 25.0644 32.6214C24.2591 32.6214 23.5053 32.5467 22.7972 32.4213V35.1576C23.4234 35.2381 24.0541 35.2788 24.6855 35.2795C32.8616 35.2795 38.7744 31.104 44.4997 26.162C45.4489 26.9222 49.3351 28.7717 50.134 29.5811C44.6903 34.1389 32.0034 37.8128 24.8108 37.8128C24.1175 37.8128 23.4517 37.7709 22.7972 37.7078V41.5528H53.874V8.75H22.7972ZM22.7972 18.5382V15.5743C23.0852 15.5542 23.3754 15.5389 23.6718 15.5295C31.7756 15.275 37.0922 22.4935 37.0922 22.4935C37.0922 22.4935 31.3497 30.4686 25.1926 30.4686C24.3065 30.4686 23.512 30.3262 22.797 30.0858V21.1007C25.9518 21.4819 26.5868 22.8755 28.4835 26.0373L32.7021 22.4803C32.7021 22.4803 29.6227 18.4418 24.4318 18.4418C23.8673 18.4416 23.3274 18.4814 22.7972 18.5382Z" fill="#2C2C2C"/>
</svg>
