<svg width="40" height="41" viewBox="0 0 40 41" fill="none" xmlns="http://www.w3.org/2000/svg">
<path fill-rule="evenodd" clip-rule="evenodd" d="M11.3422 26.6895C9.90082 25.2177 8.92318 23.3551 8.53057 21.3328C8.1347 19.3049 8.33798 17.2055 9.11557 15.2912C9.88651 13.3876 11.2027 11.7542 12.8989 10.5962C16.3403 8.24574 20.8708 8.24574 24.3122 10.5962C26.0084 11.7542 27.3246 13.3876 28.0956 15.2912C28.8732 17.2055 29.0764 19.3049 28.6806 21.3328C28.288 23.3551 27.3103 25.2177 25.8689 26.6895C23.96 28.6484 21.3408 29.7532 18.6056 29.7532C15.8704 29.7532 13.2511 28.6484 11.3422 26.6895V26.6895Z" stroke="#989CAB" stroke-width="1.5" stroke-linecap="round" stroke-linejoin="round"/>
<path d="M18.67 13.002C18.2581 13.0456 17.9596 13.4149 18.0032 13.8268C18.0468 14.2387 18.4161 14.5373 18.8281 14.4936L18.67 13.002ZM22.1634 16.4585C22.3248 16.84 22.765 17.0183 23.1464 16.8568C23.5279 16.6953 23.7062 16.2552 23.5447 15.8737L22.1634 16.4585ZM26.5506 25.9987C26.2574 25.706 25.7825 25.7065 25.4899 25.9996C25.1973 26.2928 25.1977 26.7676 25.4908 27.0603L26.5506 25.9987ZM31.1375 32.6969C31.4306 32.9896 31.9055 32.9891 32.1982 32.696C32.4908 32.4028 32.4904 31.928 32.1972 31.6353L31.1375 32.6969ZM18.8281 14.4936C20.2512 14.3428 21.6055 15.1407 22.1634 16.4585L23.5447 15.8737C22.7293 13.9476 20.7499 12.7816 18.67 13.002L18.8281 14.4936ZM25.4908 27.0603L31.1375 32.6969L32.1972 31.6353L26.5506 25.9987L25.4908 27.0603Z" fill="#989CAB"/>
</svg>
