<svg width="20" height="20" viewBox="0 0 20 20" fill="none" xmlns="http://www.w3.org/2000/svg">
<path d="M7.96932 2.5H14.2331C14.9986 2.5 15.625 3.175 15.625 4V16C15.625 16.825 14.9986 17.5 14.2331 17.5H7.96932C7.20375 17.5 6.57738 16.825 6.57738 16V15.25C6.57738 15.0511 6.65071 14.8603 6.78123 14.7197C6.91175 14.579 7.08877 14.5 7.27335 14.5C7.45793 14.5 7.63496 14.579 7.76548 14.7197C7.896 14.8603 7.96932 15.0511 7.96932 15.25V16H14.2331V4H7.96932V4.75C7.96932 4.94891 7.896 5.13968 7.76548 5.28033C7.63496 5.42098 7.45793 5.5 7.27335 5.5C7.08877 5.5 6.91175 5.42098 6.78123 5.28033C6.65071 5.13968 6.57738 4.94891 6.57738 4.75V4C6.57738 3.175 7.20375 2.5 7.96932 2.5Z" fill="white"/>
<path d="M9.13953 13.24C9.40918 13.5354 9.84476 13.5354 10.1144 13.24L12.5952 10.5224C12.7248 10.3803 12.7976 10.1877 12.7976 9.98688C12.7976 9.78604 12.7248 9.59342 12.5952 9.45139L10.1144 6.73377C9.98298 6.60364 9.81093 6.53381 9.63383 6.5387C9.45673 6.5436 9.28812 6.62285 9.16285 6.76008C9.03759 6.89731 8.96524 7.08202 8.96077 7.27603C8.9563 7.47004 9.02005 7.65851 9.13883 7.80249L10.4359 9.22946H4.44141C4.25804 9.22946 4.08217 9.30926 3.95251 9.45131C3.82284 9.59335 3.75 9.786 3.75 9.98688C3.75 10.1878 3.82284 10.3804 3.95251 10.5225C4.08217 10.6645 4.25804 10.7443 4.44141 10.7443H10.4359L9.13883 12.1713C9.00977 12.3132 8.93737 12.5054 8.93749 12.7058C8.93762 12.9061 9.01028 13.0982 9.13953 13.24Z" fill="white"/>
</svg>
